# xmcd
#
# Track frame offsets:
#	150
#	24955
#	37663
#	55970
#	77273
#	88665
#	103883
#	117483
#	134447
#	148749
#	162426
#	178596
#	196240
#
# Disc length: 3085 seconds
#
# Revision: 0
# Processed by: cddbd v1.5.2PL0 Copyright (c) Steve Scherf et al.
# Submitted via: dBpowerAMP V4.0
#
DISCID=a80c0b0d
DTITLE=Various Artist - Keep The Fire Burning
DYEAR=2014
DGENRE=
TTITLE0=The Men - Another Night
TTITLE1=Hurray For The Riff Raff - The Body Electric
TTITLE2=The Afghan Whigs - Algiers
TTITLE3=Joan As Police Woman - Holy City
TTITLE4=The Delines - Wichita Ain't So Far Away
TTITLE5=Ema - So Blonde
TTITLE6=Arc Iris - Whiskey Man
TTITLE7=Fanfarlo - Landlocked
TTITLE8=School Of Language - Distance Between
TTITLE9=Dawn Landes - Try To Make A Fire Burn Again
TTITLE10=Milagres - The Black Table
TTITLE11=Ben Watt - Spring
TTITLE12=Howlin Rain - Roll On The Rusted Days
EXTD=
EXTT0=
EXTT1=
EXTT2=
EXTT3=
EXTT4=
EXTT5=
EXTT6=
EXTT7=
EXTT8=
EXTT9=
EXTT10=
EXTT11=
EXTT12=
PLAYORDER=
